<?xml version="1.0" encoding="UTF-8" standalone="no"?>
<svg
   width="2500"
   height="2500"
   viewBox="-0.716259478639536 -11.240984926608125 7.74238908096865 26.657682895244093"
   preserveAspectRatio="xMidYMid"
   version="1.1"
   id="svg5"
   sodipodi:docname="SQLite-logo.svg"
   inkscape:version="1.3 (0e150ed6c4, 2023-07-21)"
   xmlns:inkscape="http://www.inkscape.org/namespaces/inkscape"
   xmlns:sodipodi="http://sodipodi.sourceforge.net/DTD/sodipodi-0.dtd"
   xmlns="http://www.w3.org/2000/svg"
   xmlns:svg="http://www.w3.org/2000/svg">
  <sodipodi:namedview
     id="namedview5"
     pagecolor="#ffffff"
     bordercolor="#000000"
     borderopacity="0.25"
     inkscape:showpageshadow="2"
     inkscape:pageopacity="0.0"
     inkscape:pagecheckerboard="0"
     inkscape:deskcolor="#d1d1d1"
     inkscape:zoom="0.2532"
     inkscape:cx="1250"
     inkscape:cy="1250"
     inkscape:window-width="1920"
     inkscape:window-height="1094"
     inkscape:window-x="-11"
     inkscape:window-y="-11"
     inkscape:window-maximized="1"
     inkscape:current-layer="svg5" />
  <defs
     id="defs3">
    <linearGradient
       x1="2.983"
       y1=".53"
       x2="2.983"
       y2="4.744"
       id="a"
       gradientUnits="userSpaceOnUse"
       gradientTransform="matrix(4.4779455,0,0,3.9247928,-11.398252,-9.6023705)">
      <stop
         stop-color="#97d9f6"
         offset="0%"
         id="stop1" />
      <stop
         stop-color="#0f80cc"
         offset="92.024%"
         id="stop2" />
      <stop
         stop-color="#0f80cc"
         offset="100%"
         id="stop3" />
    </linearGradient>
  </defs>
  <path
     d="M 10.812357,-8.4641808 H -7.6054321 c -1.235913,0 -2.2389728,0.8870032 -2.2389728,1.9623965 V 11.301076 c 0,1.083243 1.0120157,1.962396 2.2389728,1.962396 H 4.5298001 C 4.3954617,7.9728518 6.4553165,-2.2944064 10.816835,-8.47988 Z"
     fill="#0f80cc"
     id="path3"
     style="stroke-width:4.19225" />
  <path
     d="M 10.140666,-7.8872362 H -7.6054321 a 1.5941486,1.3972263 0 0 0 -1.5896707,1.3933014 V 10.009819 C -5.1739077,8.6557658 0.85788481,7.4901023 5.03133,7.5450494 a 129.54696,113.54426 0 0 1 5.113814,-15.4322856 z"
     fill="url(#a)"
     id="path4"
     style="fill:url(#a);stroke-width:4.19225" />
  <path
     d="m 15.111185,-9.0450501 c -1.262781,-0.9811979 -2.78976,-0.588719 -4.298828,0.5808693 L 10.140666,-7.891161 C 7.5613691,-5.4970373 5.2149257,-1.0541718 4.4268073,2.3407741 a 10.65751,9.3410071 0 0 1 0.6627359,1.6719617 l 0.098515,0.3924792 0.098515,0.400329 c 0,0 -0.02239,-0.078495 -0.1164267,-0.3139834 L 5.1074549,4.3345688 A 2.0643328,1.8093295 0 0 0 5.0671535,4.2482234 21.122468,18.513248 0 0 0 4.2297777,2.8666963 39.356662,34.495005 0 0 0 3.7685493,4.1265548 c 0.5910889,0.9497999 0.9493244,2.5746641 0.9493244,2.5746641 0,0 -0.031346,-0.1059695 -0.1791178,-0.4709751 C 4.4044176,5.904486 3.7506375,4.8958142 3.5983874,4.6603267 3.3297107,5.523781 3.2267179,6.1046505 3.3207547,6.2459429 3.4998726,6.5206785 3.6789904,7.0309015 3.8357185,7.5175759 a 33.67415,29.514443 0 0 1 0.5910888,2.6139121 l 0.02239,0.243337 a 27.360246,23.980485 0 0 0 0.06717,2.943595 c 0.1164266,1.22846 0.3358459,2.284229 0.6134786,2.8494 L 5.3179195,16.07755 C 4.9149033,14.962908 4.7447414,13.50681 4.8163885,11.823073 4.9283372,9.2523343 5.600029,6.1517479 6.8493758,2.9216434 8.967444,-1.9961221 11.887064,-5.9130654 14.564876,-7.7812668 12.124395,-5.8502687 8.8241497,0.39800156 7.8390017,2.7097045 6.7329492,5.3000679 5.9493088,7.7334394 5.4746465,10.060842 6.2896326,7.8786567 8.9226646,6.9367065 8.9226646,6.9367065 c 0,0 1.2986044,-1.3972263 2.8031934,-3.3949458 L 8.8375836,4.216825 7.9061709,4.577906 c 0,0 2.3733111,-1.2677082 4.4197321,-1.8446526 2.807672,-3.8737706 5.866109,-9.380255 2.785282,-11.7822283"
     fill="#003b57"
     id="path5"
     style="stroke-width:4.19225" />
</svg>
